<?xml version="1.0" encoding="utf-8"?>
<!-- Generator: Adobe Illustrator 15.1.0, SVG Export Plug-In . SVG Version: 6.00 Build 0)  -->
<!DOCTYPE svg PUBLIC "-//W3C//DTD SVG 1.1//EN" "http://www.w3.org/Graphics/SVG/1.1/DTD/svg11.dtd">
<svg version="1.1" id="Layer_1" xmlns="http://www.w3.org/2000/svg" xmlns:xlink="http://www.w3.org/1999/xlink" x="0px" y="0px"
	 width="137.333px" height="111px" viewBox="0 0 137.333 111" enable-background="new 0 0 137.333 111" xml:space="preserve">
<g>
	<g>
		<defs>
			<rect id="SVGID_11_" x="-143.333" y="-114.867" width="425.201" height="425.2"/>
		</defs>
		<clipPath id="SVGID_1_">
			<use xlink:href="#SVGID_11_"  overflow="visible"/>
		</clipPath>
		<path clip-path="url(#SVGID_1_)" fill="#FFFFFF" d="M36.431,23.8c-14.005,20.598-9.664,40.304,8.099,56.474
			C61.439,95.665,88.026,104.018,126.125,104c-35.004,2.309-65.817-1.675-87.646-19.131C18.735,69.075,5.843,37.699,36.431,23.8"/>
	</g>
	<g>
		<defs>
			<rect id="SVGID_13_" x="-143.333" y="-114.867" width="425.201" height="425.2"/>
		</defs>
		<clipPath id="SVGID_2_">
			<use xlink:href="#SVGID_13_"  overflow="visible"/>
		</clipPath>
		<path clip-path="url(#SVGID_2_)" fill="#FFFFFF" d="M67.151,3.319c-24.021,43.698-5.192,76.876,60.61,100.74
			c-32.095-0.967-58.153-12.998-78.178-36.088C28.041,43.115,36.814,14.016,67.151,3.319"/>
	</g>
	<g>
		<defs>
			<rect id="SVGID_15_" x="-143.333" y="-114.867" width="425.201" height="425.2"/>
		</defs>
		<clipPath id="SVGID_3_">
			<use xlink:href="#SVGID_15_"  overflow="visible"/>
		</clipPath>
		<path clip-path="url(#SVGID_3_)" fill="#FFFFFF" d="M10.139,44.557c-7.702,39.576,33.809,61.132,101.57,61.409
			c-38.813,3.72-67.191-1.055-88.115-13.371C4.446,81.333-0.412,65.345,10.139,44.557"/>
	</g>
	<g>
		<defs>
			<rect id="SVGID_17_" x="-143.333" y="-114.867" width="425.201" height="425.2"/>
		</defs>
		<clipPath id="SVGID_4_">
			<use xlink:href="#SVGID_17_"  overflow="visible"/>
		</clipPath>
		<path clip-path="url(#SVGID_4_)" fill="#FFFFFF" d="M133.424,57.905c-0.823-4.209-2.379-8.649-4.766-13.348
			c0.816,4.188,1.077,8.183,0.816,11.98c0.313,0.046,0.629,0.096,0.938,0.141C131.583,56.844,132.607,57.307,133.424,57.905
			 M120.465,46.065c-0.879-8.771-6.174-16.848-18.098-22.266c4.816,7.083,7.463,14.061,8.141,20.825
			c0.509,1.167,1.025,2.311,1.556,3.377c1.358,2.747,4.812,2.277,5.447,0.103c0.634-2.174-1.849-4.518-2.892-2.247
			c1.854-0.147,1.735,1.776,0.557,2.242c-1.18,0.465-3.109-1.417-1.547-3.136c-1.493-0.412-2.342-2.143-2.242-5.802
			c3.441,5.364,5.813,3.319,7.499,7.816C119.148,46.348,119.685,46.056,120.465,46.065 M100.172,31.501
			C97.213,19.281,87.316,8.844,71.648,3.32c3.649,6.637,6.291,13.028,7.947,19.184c1.558,1.899,4.393,1.344,4.964-0.611
			c0.634-2.173-1.848-4.517-2.893-2.246c1.854-0.147,1.736,1.776,0.558,2.241c-1.181,0.465-3.108-1.416-1.548-3.134
			c-1.492-0.413-2.338-2.144-2.241-5.803c3.44,5.363,5.812,3.319,7.499,7.816c0.292-0.702,0.906-1.007,1.843-0.914
			c0.302,0.891,0.144,1.559-0.476,2.001c4.761,0.632,3.302,3.402,9.303,5.549c-3.544,0.918-5.421,0.482-6.159-0.88
			c-1.323,1.908-3.589,0.453-3.401-0.802c0.188-1.254,2.035-1.801,2.31,0.039c1.978-1.529-0.864-3.419-2.84-2.313
			c-1.978,1.108-1.656,4.578,1.325,5.285c2.981,0.708,6.387,1.271,9.625,1.735C98.497,30.614,99.406,31.003,100.172,31.501
			 M85.14,28.648c-0.839-0.857-1.384-2.233-1.202-3.97c-1.496,0.514-2.818,0.362-3.818-0.132c0.029,0.126,0.053,0.25,0.082,0.375
			c0.594,0.853,0.949,2.019,0.801,3.449C82.653,27.803,84.116,28.023,85.14,28.648 M50.521,85.136
			c3.105,2.247,6.472,4.304,10.108,6.165c10.605-5.806,20.134-13.583,28.588-23.33c5.445-6.285,8.947-12.843,10.66-19.305
			c-2.928-0.674-4.856-3.137-4.332-4.76c-1.557,0.93-4.684-0.606-5.862-3.658c-1.181-3.053-2.495-6.243-3.854-8.989
			c-1.067-2.157-3.408-2.311-4.681-1.234c0.194,1.398,0.317,2.78,0.399,4.152c0.604,0.311,1.289,0.173,1.725-0.774
			c-1.854,0.147-1.736-1.776-0.557-2.241s3.107,1.415,1.548,3.134c1.493,0.412,2.339,2.143,2.241,5.803
			c-1.945-3.032-3.549-3.697-4.879-4.514C82.235,54.563,72.038,71.032,50.521,85.136 M54.177,94.527
			c-3.472-1.61-6.796-3.442-9.962-5.512c-9.291,5.375-20.337,10.387-33.176,15.045C26.89,103.582,41.269,100.404,54.177,94.527
			 M44.649,101.625c-9.508,1.505-20.389,2.382-31.976,2.376c13.307,0.877,27.231,0.858,39.063-0.478
			c-2.127-0.545-5.094-1.26-7.115-1.898 M76.549,101.668c-14.188,3.321-30.823,4.221-49.459,4.296
			c24.231,2.323,44.395,1.86,61.217-2.46C84.282,103.05,80.363,102.439,76.549,101.668 M63.868,101.341
			c7.373-1.595,14.313-3.823,20.753-6.815c-2.191-0.998-4.345-2.071-6.451-3.226c-6.541,3.349-13.938,6.038-22.269,8.084
			C55.903,99.385,63.338,101.456,63.868,101.341 M84.107,99.673c3.319,0.783,6.772,1.472,10.382,2.042
			c7.61-2.41,14.502-5.463,20.717-9.121c8.531-5.018,14.207-10.979,16.967-17.881c-2.557-0.863-4.158-3.097-3.676-4.597
			c-0.647,0.388-1.572,0.325-2.514-0.077C119.625,83.51,105.045,93.525,84.107,99.673 M132.607,73.469
			c0.556-1.613,0.97-3.273,1.211-4.988c-0.345-0.157-0.726-0.279-1.175-0.301c-2.579-0.125-3.305,2.03-2.38,3.66
			C130.773,72.736,131.599,73.188,132.607,73.469 M133.851,67.395c-0.782-0.975-0.884-1.83-0.82-2.978
			c-1.104,0.319-1.96,0.414-3.087-0.129c0.784,0.976,0.885,1.83,0.82,2.979C131.87,66.947,132.725,66.852,133.851,67.395
			 M120.019,54.645c0.112-0.581,0.211-1.161,0.291-1.74c-0.233-0.295-0.365-0.638-0.315-0.972c0.057-0.369,0.262-0.664,0.521-0.868
			c0.046-0.579,0.086-1.157,0.098-1.733c-0.389,0.021-0.783,0.122-1.148,0.327C117.68,50.659,117.79,53.565,120.019,54.645
			 M113.333,57.367c-0.635,2.174,1.848,4.519,2.893,2.247c-1.854,0.147-1.737-1.775-0.559-2.24c1.182-0.466,3.11,1.415,1.549,3.133
			c0.359,0.101,0.683,0.281,0.964,0.544c0.354-0.935,0.683-1.873,0.965-2.814c-0.121-0.254-0.241-0.52-0.363-0.767
			C117.42,54.723,113.967,55.192,113.333,57.367 M129.452,65.641c-0.227-0.803-0.69-1.359-1.225-1.693
			c-0.451,1.664-1.012,3.285-1.684,4.857C128.304,69.252,130.138,68.07,129.452,65.641 M119.731,56.042
			c-0.068-0.015-0.139-0.028-0.206-0.044c0.045,0.098,0.093,0.2,0.14,0.299C119.685,56.212,119.709,56.127,119.731,56.042
			 M111.958,58.495c-0.291,0.7-0.906,1.005-1.842,0.913c-0.302-0.893-0.143-1.559,0.475-2.001c-0.42-0.056-0.778-0.134-1.112-0.222
			c-2.212,8.228-7.419,15.998-15.208,23.088c-1.877,1.709-3.873,3.328-5.991,4.862c2.005,1.313,4.106,2.607,6.308,3.88
			c1.975-1.289,3.889-2.668,5.734-4.146c7.039-5.631,13.192-13.244,16.83-21.337C114.913,61.559,113.238,61.907,111.958,58.495
			 M110.575,50.73c-0.043,0.57-0.099,1.139-0.171,1.705c0.312,0.321,0.502,0.717,0.444,1.104c-0.073,0.488-0.398,0.862-0.783,1.037
			c-0.098,0.517-0.207,1.031-0.328,1.544c0.538,0.063,1.12-0.015,1.643-0.308C113.225,54.779,113.038,51.708,110.575,50.73
			 M110.68,48.103c0,0.41-0.016,0.819-0.028,1.227c0.224,0.048,0.449,0.096,0.668,0.143
			C111.112,49.028,110.896,48.567,110.68,48.103 M100.18,47.392c0.389-1.699,0.658-3.39,0.801-5.065
			c-0.369-0.191-0.789-0.334-1.29-0.359c-2.579-0.124-3.305,2.03-2.38,3.66C97.907,46.677,98.931,47.123,100.18,47.392
			 M100.9,41.185c-0.782-0.976-0.884-1.831-0.821-2.979c-1.104,0.32-1.959,0.414-3.086-0.129c0.783,0.975,0.883,1.83,0.819,2.979
			C98.917,40.736,99.773,40.641,100.9,41.185 M100.895,35.593c-0.068-0.613-0.156-1.222-0.259-1.828
			c-0.022-0.043-0.032-0.089-0.058-0.132c-0.926-1.629-2.877-1.811-5.119-2.117c-2.244-0.306-5.857-1.081-8.889-1.728
			c1.313,2.806,2.879,6.152,3.684,8.27c0.804,2.118,1.418,3.978,3.215,4.514c1.797,0.536,3.732-0.657,3.031-3.141
			c-0.703-2.486-3.602-2.874-4.164-0.246c-0.76-1.235-1.119-2.366,0.52-3.394c-1-0.637-1.466-1.342-1.204-1.962
			c0.545-0.395,1.338-0.1,2.185,0.731c0.631-1.827,1.814-1.73,3.188-1.269c-2.435,1.14-1.403,3.877,1.177,4.002
			C99.784,37.369,100.663,36.584,100.895,35.593 M118.092,54.859c-0.84-0.857-1.383-2.232-1.202-3.97
			c-1.652,0.568-3.115,0.347-4.138-0.278c0.838,0.857,1.383,2.233,1.201,3.97C115.605,54.015,117.068,54.236,118.092,54.859
			 M120.254,48.065c0.121,0.016,0.224,0.04,0.338,0.059c-0.002-0.13-0.002-0.259-0.006-0.389
			C120.495,47.855,120.39,47.968,120.254,48.065 M133.911,61.162c-0.006-0.053-0.012-0.105-0.018-0.159
			c-0.037-0.392-0.15-0.789-0.361-1.159c-0.794-1.396-2.343-1.728-4.182-1.988c-0.049,0.481-0.104,0.959-0.17,1.434
			c0.257,0.05,0.521,0.12,0.796,0.212c-0.433,0.203-0.72,0.465-0.942,0.745c-0.095,0.568-0.203,1.13-0.32,1.689
			c0.295,0.818,1.178,1.508,2.439,1.568C133.066,63.596,133.956,62.434,133.911,61.162"/>
	</g>
	<g>
		<defs>
			<rect id="SVGID_19_" x="-143.333" y="-114.867" width="425.201" height="425.2"/>
		</defs>
		<clipPath id="SVGID_5_">
			<use xlink:href="#SVGID_19_"  overflow="visible"/>
		</clipPath>
	</g>
</g>
</svg>
